<?xml version="1.0" standalone="no"?>
<!DOCTYPE svg PUBLIC "-//W3C//DTD SVG 20010904//EN"
 "http://www.w3.org/TR/2001/REC-SVG-20010904/DTD/svg10.dtd">
<svg version="1.0" xmlns="http://www.w3.org/2000/svg"
 width="800.000000pt" height="800.000000pt" viewBox="0 0 800.000000 800.000000"
 preserveAspectRatio="xMidYMid meet">
<metadata>
Created by potrace 1.14, written by Peter Selinger 2001-2017
</metadata>
<g transform="translate(0.000000,800.000000) scale(0.100000,-0.100000)"
fill="#000000" stroke="none">
<path d="M3687 7994 c-4 -4 -24 -9 -45 -10 -108 -7 -362 -45 -492 -75 -25 -6
-54 -12 -65 -15 -38 -7 -320 -86 -340 -94 -11 -5 -60 -23 -110 -40 -49 -17
-101 -37 -115 -45 -14 -7 -29 -14 -35 -15 -43 -9 -358 -158 -363 -172 -2 -4
-7 -6 -12 -3 -5 3 -14 -1 -22 -8 -7 -7 -24 -18 -38 -25 -60 -31 -107 -59 -137
-79 -17 -13 -36 -23 -42 -23 -6 0 -11 -4 -11 -10 0 -5 -4 -10 -9 -10 -16 0
-319 -214 -341 -240 -3 -3 -23 -19 -45 -35 -22 -17 -44 -36 -48 -42 -4 -7 -15
-13 -24 -13 -9 0 -14 -3 -11 -6 4 -3 -12 -22 -35 -42 -65 -56 -349 -343 -378
-382 -15 -19 -41 -51 -58 -70 -41 -47 -40 -46 -91 -115 -25 -33 -48 -61 -52
-63 -5 -2 -8 -10 -8 -18 0 -8 -4 -14 -8 -14 -4 0 -16 -15 -27 -32 -10 -18 -21
-35 -25 -38 -13 -11 -146 -225 -204 -330 -34 -61 -139 -269 -141 -280 0 -3
-10 -26 -22 -52 -12 -25 -24 -57 -28 -70 -4 -12 -11 -27 -15 -33 -3 -5 -14
-30 -23 -55 -9 -25 -22 -58 -28 -75 -7 -16 -13 -37 -15 -45 -2 -8 -7 -23 -13
-35 -9 -18 -78 -256 -86 -295 -2 -8 -8 -35 -15 -60 -7 -25 -14 -58 -17 -75 -3
-16 -14 -73 -24 -125 -21 -98 -25 -127 -34 -195 -3 -22 -8 -58 -11 -80 -3 -22
-8 -67 -12 -100 -7 -79 -7 -614 0 -685 4 -30 9 -84 13 -120 10 -94 14 -125 15
-125 1 0 4 -13 6 -30 3 -16 12 -66 20 -110 9 -44 18 -93 21 -110 2 -16 9 -48
15 -70 5 -22 12 -47 14 -55 2 -8 8 -33 14 -55 6 -22 13 -51 16 -64 3 -14 7
-29 10 -33 3 -5 8 -24 11 -41 3 -18 9 -37 13 -42 5 -6 11 -22 13 -35 4 -28 14
-57 28 -82 5 -10 9 -24 9 -31 0 -12 44 -125 121 -307 37 -88 182 -365 205
-391 8 -8 14 -19 14 -23 0 -23 277 -417 339 -483 12 -13 20 -23 18 -23 -10 0
127 -145 269 -285 142 -141 230 -221 278 -254 12 -8 28 -23 37 -33 9 -10 21
-18 27 -18 6 0 12 -4 14 -8 5 -12 176 -139 226 -167 10 -5 49 -31 89 -57 39
-27 76 -48 82 -48 6 0 11 -3 11 -8 0 -4 13 -13 30 -20 16 -7 45 -24 65 -37 19
-14 35 -22 35 -19 0 3 12 -3 28 -14 58 -40 457 -220 502 -227 6 -1 97 -34 125
-45 18 -8 53 -17 80 -21 6 0 26 -7 45 -14 19 -7 58 -18 85 -25 28 -7 57 -14
65 -17 8 -4 24 -8 35 -10 11 -2 38 -8 60 -14 22 -6 49 -12 60 -14 21 -3 122
-21 165 -30 14 -3 39 -7 55 -10 54 -7 129 -16 165 -20 19 -2 53 -7 75 -12 51
-10 631 -10 710 0 33 4 85 10 115 12 30 3 81 10 113 16 32 5 70 12 85 14 15 2
37 6 48 9 12 2 38 7 57 10 60 10 215 45 291 67 39 11 87 25 106 29 33 9 167
53 200 67 8 3 18 7 23 8 4 2 9 4 12 5 3 1 8 3 13 5 12 3 66 25 87 35 11 5 45
19 75 30 72 28 344 162 348 172 2 4 7 8 12 8 15 0 293 169 337 205 7 6 35 26
63 45 50 34 194 144 216 165 6 6 31 27 55 46 46 36 378 365 417 412 12 15 22
32 22 39 0 6 3 9 6 5 9 -8 159 184 252 323 42 63 83 121 90 128 6 7 12 20 12
28 0 8 4 14 8 14 5 0 16 15 25 33 9 17 37 68 62 112 75 132 218 437 227 485 2
8 6 17 9 20 3 3 18 41 33 85 15 44 31 89 36 100 7 16 20 61 24 85 1 3 5 11 9
18 5 6 6 12 3 12 -3 0 1 19 10 41 8 23 16 51 19 63 4 22 11 51 21 89 3 12 6
28 6 35 1 6 5 12 10 12 5 0 7 3 5 8 -3 4 6 63 20 132 29 147 29 147 37 225 4
33 9 71 11 85 19 108 28 603 13 755 -16 169 -24 244 -32 295 -13 80 -50 266
-68 335 -11 44 -22 88 -24 98 -4 22 -6 31 -34 127 -12 41 -26 84 -30 95 -5 11
-14 38 -21 60 -42 139 -211 513 -291 643 -21 34 -38 65 -38 68 0 3 -14 26 -30
51 -17 24 -30 48 -30 53 0 4 -3 10 -7 12 -5 2 -35 44 -67 93 -57 87 -137 196
-163 223 -7 7 -13 16 -13 20 0 4 -17 26 -38 49 -20 22 -53 61 -72 85 -41 51
-334 345 -401 403 -125 108 -271 220 -384 294 -55 36 -102 68 -105 71 -10 10
-65 41 -82 47 -10 3 -18 9 -18 14 0 5 -6 9 -14 9 -8 0 -16 3 -18 8 -3 8 -30
22 -213 116 -126 64 -189 92 -290 131 -96 37 -100 38 -107 40 -5 2 -11 4 -15
5 -5 1 -12 3 -18 4 -5 1 -17 5 -25 8 -63 24 -212 71 -265 84 -5 1 -63 16 -127
33 -64 18 -130 33 -145 35 -16 2 -46 9 -68 15 -22 6 -58 13 -80 17 -22 3 -49
7 -60 9 -63 10 -160 22 -255 32 -86 8 -645 15 -653 7z"/>
</g>
</svg>
